<svg width="200" height="200" viewBox="0 0 200 200" fill="none" xmlns="http://www.w3.org/2000/svg">
<path d="M123.663 35.4893C121.838 30.3436 126.349 25.2046 131.578 26.4346L175.489 36.7646C178.171 37.3956 179.862 38.9882 180.4 40.8545C180.938 42.718 180.347 44.921 178.329 46.8174C176.252 48.7697 174.042 51.0654 171.647 53.5342C169.251 56.0046 166.665 58.6519 163.829 61.3174C160.772 64.1909 156.907 68.0935 153.808 71.2754C152.258 72.8668 150.898 74.2789 149.927 75.293C149.441 75.7998 149.053 76.2074 148.785 76.4883C148.651 76.6287 148.548 76.7379 148.478 76.8115C148.443 76.8483 148.416 76.8767 148.398 76.8955C148.391 76.903 148.385 76.9085 148.381 76.9131C144.816 80.2639 139.037 78.8373 137.389 74.1895L127.375 45.957L123.663 35.4893Z" stroke="white" stroke-width="0.5"/>
<mask id="mask0_15_1048" style="mask-type:alpha" maskUnits="userSpaceOnUse" x="8" y="44" width="185" height="133">
<path d="M191.982 111.006C192.403 119.438 197.252 169.363 105.197 175.554C13.142 181.745 7.71601 127.207 8.02747 119.57C8.33894 111.932 16.9718 50.3176 97.5393 44.423C178.107 38.5283 191.56 102.574 191.982 111.006Z" fill="white"/>
</mask>
<g mask="url(#mask0_15_1048)">
<path d="M108.585 187.419C62.9558 192.748 27.0228 163.195 27.0228 163.195C-4.72752 144.219 17.6713 147.605 17.6713 147.605C119.78 207.264 214.103 127.464 199.273 144.421C184.444 161.378 165.621 180.757 108.585 187.419Z" fill="white"/>
</g>
<ellipse cx="127.533" cy="110.18" rx="5" ry="6.5" transform="rotate(-14.2982 127.533 110.18)" fill="white"/>
<ellipse cx="81.9191" cy="117.462" rx="10.8993" ry="9.17834" transform="rotate(-5.48657 81.9191 117.462)" fill="white"/>
<ellipse cx="168.143" cy="109.18" rx="10.3256" ry="9.17834" transform="rotate(-5.48657 168.143 109.18)" fill="white"/>
<ellipse cx="89.9261" cy="98.8279" rx="8.03104" ry="8.60469" transform="rotate(-5.48657 89.9261 98.8279)" fill="white"/>
<ellipse cx="155.022" cy="92.5753" rx="8.03104" ry="8.60469" transform="rotate(-5.48657 155.022 92.5753)" fill="white"/>
<path d="M140.273 68.0257L128.286 30.8551C126.61 25.6575 131.266 20.6279 136.577 21.8988L176.17 31.373C181.487 32.6454 183.358 39.2499 179.498 43.1224L151.893 70.8189C148.194 74.5293 141.881 73.0116 140.273 68.0257Z" fill="white"/>
<path fill-rule="evenodd" clip-rule="evenodd" d="M192.015 111.622C192.569 121.614 195.226 169.499 105.197 175.554C13.142 181.745 7.71601 127.207 8.02747 119.57C8.33894 111.932 16.9718 50.3176 97.5393 44.423C108.622 43.6121 118.435 44.1247 127.118 45.6338L137.079 73.2937C138.778 78.0111 144.741 79.465 148.42 76.0591L163.976 61.6612C186.556 79.7072 191.723 105.831 191.982 111.006C191.991 111.192 192.002 111.397 192.015 111.622Z" stroke="white"/>
</svg>
