<svg width="200" height="200" viewBox="0 0 200 200" fill="none" xmlns="http://www.w3.org/2000/svg">
<path d="M29.28 59.9109C41.6092 43.528 63.3202 28.7464 101.054 31.1278C123.674 32.5554 140.298 39.0484 152.505 47.6244C151.8 50.51 150.551 52.6664 148.543 54.5331C146.444 56.4845 143.498 58.1384 139.416 59.9603C138.764 60.2514 138.653 60.963 138.755 61.4507C138.856 61.9384 139.242 62.5509 139.959 62.5688C146.981 62.744 151.272 63.6108 154.559 66.3668C157.87 69.1436 160.244 73.9021 163.212 82.1227C163.441 82.7575 163.999 83.1236 164.585 83.0067C165.171 82.8898 165.539 82.3388 165.496 81.6666C164.861 71.6575 165.335 66.1656 168.149 62.2297C182.86 80.389 185.638 100.46 185.858 104.557C186.058 108.288 185.111 123.71 173.373 137.577C161.657 151.418 139.107 163.807 95.9112 161.352C53.6495 158.95 33.0823 145.806 23.1002 132.138C13.1061 118.453 13.6298 104.125 13.8135 99.1438C13.8217 98.9193 13.8294 98.7121 13.8353 98.525C13.9662 94.3912 16.9244 76.329 29.28 59.9109Z" stroke="white"/>
<mask id="mask0_17_1171" style="mask-type:alpha" maskUnits="userSpaceOnUse" x="13" y="30" width="174" height="133">
<path d="M13.335 98.5053C13.0679 106.943 9.27245 156.928 95.8863 161.851C182.5 166.774 186.767 112.167 186.358 104.535C185.949 96.9025 176.894 35.4137 101.082 30.6292C25.2689 25.8447 13.6021 90.0681 13.335 98.5053Z" fill="white"/>
</mask>
<g mask="url(#mask0_17_1171)">
<path d="M92.8832 173.761C135.85 178.462 169.171 148.416 169.171 148.416C198.722 129.006 177.722 132.7 177.722 132.7C82.6641 193.758 -7.20451 115.266 6.99209 132.017C21.1887 148.768 39.1748 167.886 92.8832 173.761Z" fill="white"/>
</g>
<path d="M79.832 95.368C90.1208 91.4165 90.7971 93.7794 90.7468 94.9447C92.0742 100.253 71.6475 104.66 69.7696 94.0754C71.5499 88.8957 74.3557 96.0166 79.832 95.368Z" fill="white"/>
<ellipse cx="11.1258" cy="9.17868" rx="11.1258" ry="9.17868" transform="matrix(-0.999142 -0.041405 -0.0431436 0.999069 134.261 93.6277)" fill="white"/>
<ellipse cx="10.5402" cy="9.17868" rx="10.5402" ry="9.17868" transform="matrix(-0.999142 -0.041405 -0.0431436 0.999069 45.3314 89.9424)" fill="white"/>
<path d="M112.147 82.3764C105.62 84.2299 102.534 84.6174 102.622 83.4542C101.467 78.1072 122.026 74.3357 123.561 84.9734C121.614 90.0953 117.641 81.8978 112.147 82.3764Z" fill="white"/>
<path d="M46.084 78.4904C35.6727 82.1209 35.8865 80.7072 35.9745 79.5439C34.8192 74.1969 55.3781 70.4254 56.9131 81.0631C54.9663 86.1851 51.5785 78.0118 46.084 78.4904Z" fill="white"/>
<path d="M99.7001 123.381L22.5256 113.959C19.3996 113.577 16.672 116.07 16.7724 119.217C16.7968 119.982 16.9917 120.732 17.3427 121.412L29.8749 145.696C30.661 147.219 31.7341 148.576 33.0349 149.693C34.9805 151.364 37.3667 152.437 39.9063 152.784L112.478 162.694C114.072 162.912 115.678 162.39 116.838 161.278C118.261 159.915 118.804 157.872 118.247 155.981L111.614 133.475C110.672 130.277 108.634 127.511 105.858 125.662C104.011 124.431 101.902 123.65 99.7001 123.381Z" stroke="white"/>
<path fill-rule="evenodd" clip-rule="evenodd" d="M103.862 130.738C101.971 129.409 99.7956 128.542 97.5093 128.206L17.5003 116.46C14.2542 115.983 11.3477 118.511 11.37 121.792C11.3755 122.588 11.5584 123.373 11.9054 124.09L24.3087 149.699C25.0858 151.303 26.1654 152.743 27.4884 153.938C29.4693 155.727 31.9253 156.905 34.5602 157.33L109.774 169.47C111.429 169.737 113.116 169.234 114.353 168.104C115.867 166.721 116.485 164.61 115.955 162.629L109.64 139.011C108.745 135.661 106.699 132.733 103.862 130.738ZM102.125 139.352C103.367 142.73 102.655 146.075 100.533 146.824C98.4116 147.573 95.6845 145.442 94.442 142.065C93.1994 138.688 93.912 135.343 96.0335 134.594C98.1551 133.845 100.882 135.975 102.125 139.352ZM91.8829 137.324C93.1254 140.701 92.4129 144.046 90.2913 144.795C88.1698 145.544 85.4427 143.413 84.2001 140.036C82.9576 136.659 83.6701 133.314 85.7917 132.565C87.9132 131.816 90.6403 133.946 91.8829 137.324Z" fill="white"/>
<path d="M154.119 32.6915C154.137 32.6882 154.164 32.6888 154.199 32.7114C154.235 32.7343 154.298 32.7931 154.347 32.9288C157.309 41.1309 159.756 46.1407 163.301 49.1137C166.871 52.1075 171.474 52.9729 178.525 53.1488C178.577 53.1504 178.712 53.2089 178.765 53.4643C178.818 53.7197 178.717 53.8257 178.67 53.8467C173.529 56.1411 170.008 58.241 167.738 61.1046C164.325 65.4095 163.837 71.3152 164.497 81.7222C164.506 81.8656 164.471 81.9433 164.448 81.9781C164.424 82.0125 164.399 82.0235 164.382 82.027C164.365 82.0304 164.337 82.0302 164.301 82.0073C164.265 81.9844 164.202 81.9263 164.153 81.7908C161.192 73.5885 158.745 68.578 155.2 65.605C151.63 62.6112 147.027 61.7468 139.976 61.5709C139.924 61.5694 139.789 61.5107 139.735 61.2553C139.682 60.9999 139.784 60.8941 139.83 60.8729C143.936 59.0404 147.006 57.3322 149.23 55.2654C151.47 53.183 152.832 50.7547 153.562 47.5257C154.379 43.9053 154.402 39.2747 154.004 32.9974C153.994 32.8538 154.029 32.7754 154.053 32.7406C154.077 32.706 154.102 32.6949 154.119 32.6915Z" stroke="white"/>
<path d="M178.89 39.8621C173.808 40.7191 172.69 41.7943 171.748 46.7314C171.697 47.0007 171.3 46.9984 171.252 46.7284C170.371 41.7804 169.266 40.6921 164.195 39.7748C163.919 39.7247 163.921 39.3382 164.198 39.2915C169.28 38.4344 170.398 37.3593 171.34 32.4222C171.391 32.1528 171.788 32.1552 171.837 32.4251C172.717 37.3731 173.822 38.4614 178.893 39.3788C179.169 39.4288 179.167 39.8153 178.89 39.8621Z" fill="white"/>
</svg>
