<svg viewBox="-499 -161 1890 1338" fill="none" xmlns="http://www.w3.org/2000/svg">
<g>
<g>
<path d="M1391 980.147V986.172L1070.24 902.735L273.598 695.52C279.55 695.028 285.501 694.557 291.423 694.128L1391 980.147Z" fill="#9E752C"/>
<path d="M1391 869.313V980.147L291.423 694.124C342.562 690.373 392.937 689.049 439.389 690.869C574.083 695.36 702.045 722.336 834.5 738.072C865.345 741.04 896.324 744.636 927.303 748.858L1137.45 787.608C1152.56 791.161 1167.58 794.887 1182.47 798.755C1236.66 811.724 1318.08 837.505 1391 869.313Z" fill="#D2AC6F"/>
<path d="M1391 790.778V828.448L1032.61 762.394L314.998 630.11C315.737 629.731 316.388 629.235 316.972 628.676C325.998 628.743 332.058 629.033 334.797 625.059C349.077 625.779 353.092 619.706 353.898 607.684L1391 790.778Z" fill="#E7A35D"/>
<path d="M353.34 492.426V163.815V124.165C377.359 103.013 423.74 90.6963 446.861 83.7495C493.267 68.7793 539.668 56.778 587.557 47.7875C704.292 26.8166 830.006 35.8071 945.241 61.2732C1058.99 85.2549 1177.23 127.222 1259.53 212.632C1293.97 248.594 1313.14 283.118 1335.86 329.512C1356.06 370.731 1364.69 407.054 1378.16 447.516C1383.36 461.876 1387.61 478.533 1391 496.203V790.555L353.898 607.457L353.34 607.352V492.426Z" fill="#E2E892"/>
<path d="M1391 -136.455V496.421C1387.61 478.751 1383.37 462.099 1378.16 447.735C1364.69 407.273 1356.06 370.954 1335.86 329.731C1313.14 283.336 1293.97 248.812 1259.53 212.85C1177.23 127.44 1058.99 85.4735 945.241 61.4919C830.002 36.0258 704.292 27.0353 587.557 48.0061C539.668 57.0008 493.267 69.0022 446.861 83.9681C423.74 90.9149 377.359 103.232 353.335 124.383V74.6244V74.6034L1391 -136.455Z" fill="#C6D07B"/>
<path d="M1391 -144.095V-136.455L353.34 74.5992L347.728 75.7472V67.5641L349.211 67.8794L1391 -144.095Z" fill="#AC843E"/>
<path d="M1391 -161V-144.095L349.211 67.8794L347.728 67.5641V66.0124V49.8984L910.827 -75.4094L1295.45 -161H1391Z" fill="#BC9B64"/>
<path d="M1071.54 908.757L889.902 1003L881.28 1007.49L730.13 1085.91L721.89 1090.19L591.345 1157.93L591.211 1158L-158.981 827.186C-157.88 826.602 -156.465 826.063 -154.646 825.634C-154.537 825.592 -154.419 825.567 -154.31 825.546L-13.3036 792.957L-1.3588 790.194L157.313 753.513L170.194 750.519L306.736 718.959L1068.92 907.878C1069.93 908.13 1070.8 908.416 1071.54 908.757Z" fill="#FBBEB3"/>
<path d="M1070.24 902.735L1068.92 907.882L306.736 718.964L170.194 750.523L85.808 720.923C144.826 709.839 209.506 700.873 273.594 695.52L1070.24 902.735Z" fill="#D2AC6F"/>
<path d="M1032.61 762.394L1032.03 765.56C997.3 759.198 962.298 753.622 927.299 748.858L297.685 632.81C298.135 631.889 298.517 630.85 298.849 629.773C306.598 632.2 311.671 631.998 314.994 630.106L1032.61 762.394Z" fill="#BE7F30"/>
<path d="M936.577 1177H551.034L-161.496 844.721L-158.779 838.859L592.265 1170.05L593.008 1169.67L735.544 1095.72L936.577 1177Z" fill="#D2AC6F"/>
<path d="M297.69 632.809L927.303 748.858C896.324 744.631 865.345 741.04 834.5 738.072C702.045 722.34 574.083 695.365 439.389 690.869C392.937 689.048 342.562 690.377 291.423 694.124L96.9212 643.532L240.796 622.335L258.558 619.727L275.732 617.188V622.873V628.764V629.054C282.309 635.118 287.068 637.591 290.545 637.776C293.981 637.978 296.186 635.934 297.69 632.809Z" fill="#CCA059"/>
<path d="M910.827 -75.4094L347.728 49.8984L-499 -138.591V-161H-236.634C91.31 -104.471 316.766 -57.0667 563.264 -56.1458C683.187 -55.6959 798.061 -62.0372 910.827 -75.4094Z" fill="#D1CAC0"/>
<path d="M591.345 1157.93C592 1161.71 593.076 1165.49 593.008 1169.67L592.265 1170.05L-158.779 838.855C-158.779 838.855 -166.793 831.433 -158.981 827.186L591.211 1158L591.345 1157.93Z" fill="#AC7693"/>
<path d="M551.034 1177H539.668L-238.562 814.062C-236.836 813.095 -235.085 812.153 -233.308 811.232L-161.492 844.721L551.034 1177Z" fill="#9E752C"/>
<path d="M539.668 1177H252.586L-313.994 868.169C-291.411 846.837 -266.043 829.083 -238.562 814.066L539.668 1177Z" fill="#D2AC6F"/>
<path d="M353.34 607.57L353.898 607.68C353.092 619.702 349.077 625.774 334.797 625.055C335.918 623.432 336.502 621.102 336.502 617.73H337.245V608.134V482.17C343.037 485.156 348.468 488.642 353.344 492.645L353.34 607.57Z" fill="#BBC8D4"/>
<path d="M353.34 164.037V492.649C348.468 488.646 343.033 485.164 337.241 482.174V153.34C342.81 156.666 348.195 160.215 353.34 164.037Z" fill="#FBBEB3"/>
<path d="M353.34 124.388V164.037C348.195 160.215 342.81 156.666 337.241 153.34V145.426V73.5185L347.724 75.743L353.335 74.5992V74.6202V124.388H353.34Z" fill="#F8ADA2"/>
<path d="M347.728 67.5641V75.7472L337.241 73.5227L320.407 69.9484L301.818 66.0124L290.55 63.6113L275.732 60.4869L-307.056 -63.1599L-336.846 -69.476L-355.482 -73.4288L-398.452 -82.558L-433.157 -89.9044L-449.138 -93.2979L-481.041 -100.064L-499 -103.886V-111.531L347.728 67.5641Z" fill="#AE7643"/>
<path d="M347.728 66.0124V67.5641L-499 -111.531V-138.591L347.728 49.8984V66.0124Z" fill="#BB8A5F"/>
<path d="M337.241 608.134V617.73H336.498C336.498 621.102 335.914 623.432 334.792 625.055C332.054 629.029 325.993 628.739 316.968 628.672C321.008 624.778 321.478 617.478 321.882 610.379L320.403 610.602V474.979C326.216 476.981 331.873 479.361 337.241 482.17V608.134Z" fill="#9FB4C5"/>
<path d="M337.241 153.34V482.174C331.873 479.361 326.22 476.981 320.403 474.984V144.055C326.153 146.977 331.785 150.056 337.241 153.34Z" fill="#F79F94"/>
<path d="M337.241 145.426V153.336C331.785 150.051 326.149 146.973 320.403 144.051V69.9484L337.241 73.5227V145.426Z" fill="#F58E84"/>
<path d="M320.407 610.602L321.886 610.379C321.483 617.478 321.012 624.782 316.972 628.672C316.388 629.231 315.737 629.727 314.998 630.106C311.676 631.998 306.602 632.2 298.853 629.773C299.101 628.966 299.328 628.108 299.529 627.255C300.537 622.94 301.008 618.104 301.705 614.442H301.814V613.34V469.803C308.009 471.132 314.275 472.839 320.403 474.975V610.602H320.407Z" fill="#BBC8D4"/>
<path d="M320.407 144.055V474.979C314.28 472.843 308.013 471.136 301.818 469.807V135.287C308.059 138.029 314.301 140.951 320.407 144.055Z" fill="#FBBEB3"/>
<path d="M320.407 69.9484V144.055C314.301 140.951 308.059 138.029 301.818 135.287V66.0124L320.407 69.9484Z" fill="#F8ADA2"/>
<path d="M301.818 613.348V614.45H301.709C301.012 618.113 300.537 622.949 299.533 627.263C299.332 628.117 299.105 628.97 298.857 629.782C298.525 630.858 298.143 631.897 297.694 632.818C296.19 635.938 293.989 637.986 290.554 637.788V631.514V625.627V615.018V467.772C294.258 468.31 298.03 468.983 301.822 469.816L301.818 613.348Z" fill="#9FB4C5"/>
<path d="M301.818 135.287V469.811C298.026 468.979 294.254 468.306 290.55 467.768V367.203V130.477C294.296 132.028 298.068 133.626 301.818 135.287Z" fill="#F79F94"/>
<path d="M301.818 66.0124V135.287C298.068 133.626 294.3 132.028 290.55 130.477V63.6113L301.818 66.0124Z" fill="#F58E84"/>
<path d="M96.9212 643.532L291.423 694.124C285.497 694.553 279.546 695.024 273.598 695.516L82.1288 645.711L96.9212 643.532Z" fill="#BE7F30"/>
<path d="M290.55 631.506V637.78C287.068 637.595 282.309 635.122 275.736 629.059V628.768V622.877V617.192V483.768V466.237C280.449 466.502 285.434 467.002 290.55 467.763V615.009V625.619V631.506Z" fill="#BBC8D4"/>
<path d="M290.55 367.203V467.763C285.43 466.998 280.449 466.502 275.736 466.237V339.512C280.31 348.683 284.065 358.031 286.732 367.203H290.55Z" fill="#FBBEB3"/>
<path d="M290.55 130.477V367.203H286.732C284.061 358.031 280.31 348.679 275.736 339.512V290.783V124.543C280.625 126.452 285.585 128.408 290.55 130.477Z" fill="#FBBEB3"/>
<path d="M290.55 63.6113V130.481C285.585 128.412 280.625 126.456 275.736 124.547V98.972V60.4911L290.55 63.6113Z" fill="#F8ADA2"/>
<path d="M275.732 483.768V617.192L258.558 619.732L240.796 622.339L96.9212 643.537L82.1288 645.719L-66.2866 667.56L-81.3268 669.789L-240.986 693.296L-254.77 695.344L-307.434 703.102C-307.434 698.922 -307.434 695.142 -307.434 692.379C-307.434 668.393 -307.434 644.411 -307.434 621.935C-307.434 562.012 -307.434 502.064 -307.434 442.121C-307.434 429.354 -307.434 416.613 -307.434 403.846C-307.434 305.106 -307.434 206.341 -307.434 107.58C-305.439 107.151 -303.44 106.793 -301.44 106.478H-295.829V378.334V481.703V504.583V518.204L267.651 484.151L273.645 483.768H275.732Z" fill="#C6D07B"/>
<path d="M275.732 466.237V483.768H273.64L267.647 482.914V324.946C270.566 329.714 273.283 334.592 275.732 339.512V466.237Z" fill="#C6D07B"/>
<path d="M275.732 124.543V290.779V339.508C273.283 334.588 270.566 329.71 267.647 324.941V287.407V146.952V145.808L-295.829 66.0124V81.0035V106.47H-301.44C-303.44 106.785 -305.439 107.142 -307.434 107.571C-307.434 81.9917 -307.434 56.3911 -307.434 30.7904C-268.617 0.761815 -168.943 7.77171 -137.556 8.69683C-60.1084 10.9466 11.7284 28.9276 88.0592 41.2864C123.978 46.9044 157.653 55.8991 192.446 64.8854C215.794 71.2687 256.227 81.6553 275.736 98.9635V124.543H275.732Z" fill="#C6D07B"/>
<path d="M275.732 60.4869V98.9678C256.223 81.6596 215.79 71.2772 192.442 64.8896C157.645 55.8991 123.969 46.9086 88.055 41.2906C11.7242 28.9276 -60.1126 10.9466 -137.561 8.70105C-168.947 7.78014 -268.622 0.770241 -307.438 30.7947C-307.438 0.0679878 -307.438 -30.6335 -307.438 -61.3601L-307.056 -63.1599L275.732 60.4869Z" fill="#BCC961"/>
<path d="M273.64 483.768L267.647 484.147V482.914L273.64 483.768Z" fill="#C0C9C0"/>
<path d="M82.1288 645.715L273.598 695.52C209.506 700.873 144.831 709.839 85.8122 720.923L-66.2824 667.56L82.1288 645.715Z" fill="#CCA059"/>
<path d="M267.647 482.914V484.147L-295.829 518.204V504.579L220.956 476.127L267.647 482.914Z" fill="#97A34D"/>
<path d="M267.647 324.946V482.914L220.956 476.127L223.203 275.431C239.994 287.365 255.614 305.211 267.647 324.946Z" fill="#BCC961"/>
<path d="M267.647 287.411V324.946C255.614 305.211 239.994 287.365 223.198 275.431L223.354 260.978L224.568 152.953L244.257 149.694L267.647 146.952V287.411Z" fill="#A6B255"/>
<path d="M267.647 145.808V146.952L244.257 149.694L267.647 145.808Z" fill="#A6B255"/>
<path d="M267.647 145.808L244.257 149.694L220.817 152.44L-295.829 81.0078V66.0124L267.647 145.808Z" fill="#97A34D"/>
<path d="M252.586 1177H239.07L-318.862 872.858C-317.27 871.239 -315.632 869.666 -313.994 868.165L252.586 1177Z" fill="#9E752C"/>
<path d="M244.257 149.694L224.568 152.957L220.817 152.44L244.257 149.694Z" fill="#97A34D"/>
<path d="M239.07 1177H-27.5206L-373.441 956.859C-364.957 930.628 -349.421 905.452 -329.509 883.833C-326.052 880.074 -322.503 876.39 -318.866 872.862L239.07 1177Z" fill="#D2AC6F"/>
<path d="M224.568 152.957L223.354 260.982C221.67 260.036 219.96 259.094 218.259 258.19L217.587 258.661C216.218 256.638 214.689 254.683 213.03 252.795L214.152 162.662L71.9816 142.928V202.308C67.9832 201.925 63.968 201.61 59.9444 201.387V141.267L-103.259 118.61L-104.292 224.679C-108.198 226.004 -112.058 227.375 -115.897 228.813V116.86L-287.971 92.9881V363.591C-290.865 368.422 -293.561 373.388 -295.829 378.334V106.474V81.0078L220.821 152.44L224.568 152.957Z" fill="#F7F2B7"/>
<path d="M223.203 275.431L220.956 476.127L-295.829 504.583V481.703V378.334C-293.561 373.388 -290.869 368.422 -287.971 363.591V492.334L-115.897 482.759V228.813C-112.058 227.375 -108.198 226.004 -104.292 224.679L-106.829 482.237L59.9444 472.978V201.396C63.968 201.618 67.9832 201.934 71.9816 202.316V472.309L210.405 464.597L213.03 252.799C214.693 254.687 216.218 256.642 217.587 258.665L218.259 258.194C219.964 259.094 221.674 260.036 223.354 260.986L223.203 275.431Z" fill="#FDFBE6"/>
<path d="M214.152 162.667L213.03 252.799C192.534 229.557 151.068 218.027 123.973 210.992C106.98 206.786 89.5838 203.914 71.9816 202.316V142.932L214.152 162.667Z" fill="#80C0FE"/>
<path d="M213.03 252.799L210.405 464.597L71.9816 472.309V202.312C89.5796 203.91 106.98 206.782 123.973 210.987C151.068 218.027 192.534 229.557 213.03 252.799Z" fill="#A4D5FF"/>
<path d="M170.194 750.523L157.313 753.517L71.9816 723.572C76.5596 722.677 81.1628 721.798 85.808 720.923L170.194 750.523Z" fill="#D19436"/>
<path d="M157.313 753.513L-1.35881 790.194L-84.1786 756.7C-33.3292 743.685 19.6538 733.728 71.9816 723.568L157.313 753.513Z" fill="#D2AC6F"/>
<path d="M-66.2866 667.556L85.808 720.919C81.1628 721.794 76.5554 722.673 71.9816 723.568L-81.3268 669.785L-66.2866 667.556Z" fill="#BE7F30"/>
<path d="M-81.3268 669.785L71.9816 723.568C19.6496 733.728 -33.3292 743.685 -84.1786 756.7L-240.986 693.291L-81.3268 669.785Z" fill="#CCA059"/>
<path d="M59.9444 201.396V472.982L-106.829 482.242L-104.292 224.683C-51.8764 206.74 4.81102 198.09 59.9444 201.396Z" fill="#A4D5FF"/>
<path d="M59.9444 141.267V201.396C4.81099 198.09 -51.8764 206.74 -104.292 224.679L-103.259 118.61L59.9444 141.267Z" fill="#80C0FE"/>
<path opacity="0.6" d="M-499 825.798C-270.449 862.135 -50.2846 767.402 170.9 725.578C171.375 725.49 269.239 701.113 317.224 703.556C462.027 710.928 599.258 763.378 742.087 807.048C873.602 847.265 1007.56 883.568 1145.03 895.334C1160.35 896.65 1272.19 913.256 1316.8 881.163C1339.2 865.045 1386.1 830.004 1386.1 831.404C1386.1 833.931 1237.58 794.878 1195.8 782.431C1104.9 755.355 1011.87 735.187 918.979 716.335C735.72 679.15 548.455 643.432 360.992 639.454C118.551 634.311 -356.2 733.988 -356.2 733.988C-356.2 739.943 -358.817 753.445 -357.25 755.014C-356.549 755.712 -354.276 761.931 -369.59 767.015C-378.279 769.9 -389.258 765.014 -397.679 763.336C-397.679 763.336 -397.331 771.166 -404.504 772.272C-418.154 774.374 -430.679 767.276 -432.594 767.276C-433.119 767.276 -426.554 778.054 -448.608 775.951C-452.838 775.547 -448.083 785.152 -450.973 785.678C-457.542 786.872 -475.388 785.942 -480.638 781.208C-480.818 781.027 -475.9 799.605 -499 790.753V825.798Z" fill="#894529"/>
<g opacity="0.5">
<path d="M739.118 860.045L606.259 915.447L520.441 876.676L188.25 726.533L353.142 693.556L606.663 806.19L739.118 860.045Z" fill="#FFF3CE"/>
<path d="M582.231 926.128L441.544 984.818L-7.80582 766.414L175.356 729.733L582.231 926.128Z" fill="#FFF3CE"/>
<path d="M410.762 998.62L239.137 1069.22L-56.1268 850.327L-39.2554 792.957L-37.1638 772.011L-17.8858 768.411L410.762 998.62Z" fill="#FFF3CE"/>
</g>
<path d="M561.878 90.894L556.04 91.6929L353.81 118.143L353.054 227.055L349.904 658.372H349.4V679.234L376.742 687.345L414.542 674.684H414.584L549.782 708.834L631.976 690.836L635.924 96.4447L636.008 92.7021L561.878 90.894Z" fill="#C6D07B"/>
<g opacity="0.6">
<path opacity="0.5" d="M445.639 740.586C436.831 741.511 429.221 742.861 421.615 744.215C432.489 742.786 447.814 744.438 459.339 745.086C448.31 745.523 438.142 746.293 427.213 746.263L426.928 746.33C430.347 747.167 442.989 748.408 447.176 748.635C438.201 749.202 431.804 748.256 423.522 748.168C429.792 749.568 437.772 750.393 444.341 751.696C433.366 753.58 416.823 750.048 406.709 748.912C411.661 750.977 422.568 753.096 429.595 754.661C417.117 754.169 405.634 752.007 395.944 749.875C395.449 749.766 394.962 749.657 394.466 749.547C394.533 749.745 394.68 749.934 394.899 750.119C397.486 752.356 409.838 753.559 413.891 755.653C406.881 755.069 396.507 753.399 387.855 751.334C380.215 749.514 373.903 747.386 372.387 745.409C360.95 744.615 349.711 743.606 340.114 741.776C358.035 750.081 379.657 757.558 405.453 762.772C415.945 758.988 443.484 756.339 457.676 756.313C450.897 758.458 434.017 758.546 430.855 761.406C440.196 760.262 450.771 759.139 461.599 758.815C465.883 758.689 470.221 758.685 474.539 758.862C470.415 759.366 465.328 759.921 460.322 760.552C454.161 761.326 448.104 762.205 444.114 763.243C448.071 763.134 452.989 762.798 458.193 762.503C469.159 761.881 481.389 761.431 488.743 763.538C480.289 764.412 470.633 764.606 462.43 765.611C471.817 766.271 479.789 765.792 489.428 767.247C484.548 767.116 469.436 767.36 464.854 767.978L465.06 768.088C477.357 769.055 488.197 770.859 500.243 772.347C486.744 772.024 468.155 772.49 457.08 769.896C464.53 772.103 472.002 774.328 481.167 776.17C467.277 775.539 452.754 773.6 441.048 771.002C438.709 770.476 436.491 769.938 434.408 769.37C436.504 769.921 438.587 770.514 440.653 771.132C449.44 773.781 457.844 776.901 465.446 779.572C453.295 777.759 441.359 776.077 431.821 773.546C427.554 772.41 423.778 771.124 420.653 769.568C421.884 771.191 423.862 772.911 426.365 774.61C430.124 777.166 435.084 779.689 440.582 781.788C432.455 779.795 425.668 777.73 420.183 775.43C415.075 773.293 411.123 770.955 408.364 768.281C406.197 770.426 405.982 773.277 407.289 775.888C408.032 777.385 409.258 778.811 410.926 779.988C406.86 778.941 404.13 777.339 402.358 775.602C400.342 773.638 399.54 771.515 399.426 769.866C399.611 769.236 400.065 766.048 402.177 764.665L401.879 764.631C402.324 764.206 403.013 763.798 403.903 763.395C378.867 758.479 357.317 751.553 339.198 743.799C344.549 747.159 350.282 750.557 354.217 754.093C355.011 754.905 355.839 755.725 356.658 756.532C358.468 757.184 359.824 757.861 360.383 758.546C359.644 758.294 358.791 758.033 357.867 757.764C358.816 758.744 359.711 759.732 360.45 760.737C361.349 761.767 363.05 764.501 364.44 765.922C364.461 765.943 364.461 765.964 364.482 765.989C367.519 766.17 373.844 767.259 375.003 767.448C379.661 768.344 385.667 769.778 388.368 771.195C388.804 771.41 389.132 771.624 389.376 771.834C388.863 771.658 388.292 771.481 387.675 771.3C383.319 770.043 376.444 768.702 370.631 768.163C375.369 769.479 378.913 770.766 381.652 772.082C384.037 773.218 385.814 774.366 387.25 775.556C385.138 774.53 382.168 773.394 378.737 772.326C376.36 771.574 373.731 770.85 371.047 770.224C373.084 770.989 374.621 771.742 375.797 772.49C378.678 774.303 379.493 776.065 380.425 777.764C377.208 776.304 372.97 774.475 369.648 772.595C369.27 772.381 368.913 772.167 368.565 771.952C368.922 772.167 369.266 772.377 369.581 772.591C372.857 774.786 374.176 777.065 373.113 778.815C371.484 777.515 368.896 776.245 366.116 774.887C369.022 776.733 365.675 778.71 364.398 780.211C363.483 778.663 361.782 777.099 361.714 775.434L361.202 775.48C359.451 776.014 357.212 777.587 356.842 778.142C355.339 776.716 357.363 775.854 357.372 774.542C354.255 775.333 352.575 776.481 349.711 777.318C344.557 775.274 352.554 773.109 355.112 771.548C355.137 771.536 355.162 771.519 355.188 771.511C355.099 771.515 355.028 771.523 354.94 771.532C349.967 772.003 345.124 773.491 341.445 774.42C341.823 772.86 344.658 771.553 348.157 770.455C349.765 769.955 351.487 769.492 353.176 769.067C349.74 768.811 347.38 769.273 345.145 769.858C342.814 770.451 340.622 771.166 337.535 771.321C338.157 770.644 339.639 769.85 341.697 769.076C346.725 767.188 355.179 765.426 362.861 765.825C361.42 764.644 359.409 761.326 358.371 760.169C357.64 759.177 356.771 758.201 355.83 757.238C350.316 755.847 342.831 754.56 336.468 754.038C346.208 756.86 351.093 759.921 353.73 763.618C349.56 761.023 342.399 758.231 334.864 756.334C339.106 758.298 340.441 760.296 340.677 762.348C340.832 763.727 340.504 765.123 340.24 766.549C338.362 765.249 336.246 763.836 334.301 762.411C332.411 761.031 330.697 759.64 329.584 758.319C330.752 759.593 331.319 760.956 331.264 762.31C331.227 764.202 329.971 766.086 327.472 767.692C326.8 765.674 324.746 763.777 322.671 761.881C324.259 764.45 316.716 767.057 312.637 769.189C313.734 766.864 313.755 764.61 316.048 762.436L315.905 762.373C312.931 762.835 307.11 765.005 305.657 765.775C305.968 763.819 309.802 762.798 311.722 761.166C306.694 762.032 302.868 763.407 298.047 764.362C295.825 762.2 303.486 760.275 309.286 758.714C310.764 758.319 312.142 757.941 313.171 757.592C311.449 757.705 309.63 757.894 307.803 758.138C302.641 758.811 297.265 759.875 293.141 760.586C295.703 759.021 300.138 757.743 305.065 756.671C307.954 756.04 311.012 755.472 313.965 754.968C310.487 754.703 307.228 755.157 304.015 755.72C300.63 756.322 297.27 757.041 293.7 757.171C298.971 754.98 315.46 751.612 327.333 751.646C327.959 747.672 327.358 743.837 324.885 739.976C322.478 739.316 320.101 738.37 318.354 737.361C315.838 735.885 314.704 734.253 316.98 733.089C315.115 732.083 313.318 731.07 311.579 730.061C310.819 731.655 307.593 733.362 305.098 734.564C305.04 734.598 304.998 734.623 304.939 734.649C306.531 735.25 307.513 737.546 307.736 737.929C308.005 739.123 307.87 740.691 306.636 741.978C306.039 742.584 305.224 743.126 304.095 743.542C304.557 743.013 304.851 742.386 304.96 741.713C305.174 740.258 304.51 738.606 302.839 737.369C302.276 738.61 301.373 739.716 300.163 740.733C298.168 742.415 295.342 743.837 291.873 745.17C294.225 743.677 296.085 741.692 296.782 739.733C296.929 739.358 297.009 738.984 297.072 738.618C296.766 738.908 296.413 739.19 296.039 739.451C292.578 741.94 286.618 743.429 281.032 744.917C283.359 743.324 286.106 741.267 289.689 739.409C285.329 741.465 279.281 743.118 273.262 743.9C276.043 742.811 278.08 741.532 280.276 740.157C276.723 741.827 268.823 742.201 263.623 742.777C267.563 741.705 271.049 740.447 275.854 739.506V739.442C273.502 739.278 266.824 739.712 264.841 739.947C268.05 738.824 271.855 738.782 275.703 738.046C271.406 737.802 266.962 738.084 262.67 737.937C265.375 735.633 277.017 736.196 283.158 735.864C278.626 735.01 271.007 734.775 265.854 734.485C272.838 733.337 281.541 733.618 289.021 734.056C286.056 732.222 277.215 733.051 272.427 731.89C276.219 731.499 282.271 731.423 288.202 731.718C294.283 732.012 300.247 732.706 303.511 733.854C306.82 733.232 309.097 730.645 309.744 728.993C299.092 722.698 290.352 716.344 283.498 710.469L247.13 714.325L242.279 710.066L227.046 696.71L258.714 690.638L259.806 690.508L282.78 688.885L292.939 692.543L325.657 704.052L289.449 709.75C297.534 716.701 307.891 724.363 320.861 731.827C322.512 731.386 324.28 731.003 324.754 730.877C329.148 730.002 336.061 728.947 341.374 729.043C336.233 729.514 329.295 730.793 325.851 732.088C330.924 731.453 335.649 731.066 340.252 730.868C344.217 730.696 348.102 730.662 352.046 730.721C347.997 730.889 343.281 731.259 338.774 731.772C338.774 731.772 338.774 731.772 338.761 731.772C336.46 732.037 334.221 732.332 332.146 732.664C334.028 732.517 335.842 732.416 337.606 732.369C344.776 732.147 351.004 732.588 357.044 732.967C351.315 733.248 343.898 733.681 336.737 733.778C344.898 733.631 352.974 734.073 358.472 734.956C354.171 734.897 349.732 735.078 344.982 735.258C351.227 735.204 356.368 736.591 360.555 737.357C355.679 737.067 350.593 736.953 345.591 736.432L345.406 736.448C346.187 736.978 350.836 738.114 352.512 738.391C347.88 738.273 345.78 737.546 341.84 737.113C343.465 738.076 346.494 738.816 348.354 739.733C340.903 740.25 336.283 737.706 332.184 736.638C332.314 737.819 335.196 739.287 337.161 740.405C337.615 740.611 338.064 740.826 338.505 741.036C348.505 742.979 360.345 744.001 372.332 744.829C371.458 743.521 372.97 740.843 373.197 740.304C375.272 737.718 380.362 733.879 388.989 732.592C383.218 734.993 378.943 739.178 379.745 742.247C386.154 738.9 394.68 736.511 405.52 734.594C408.498 734.06 411.648 733.572 414.987 733.105C412.102 733.782 409.275 734.556 406.579 735.389C400.098 737.39 394.428 739.745 390.85 742.003C396.217 740.351 402.538 739.299 409.397 738.547C417.217 737.676 425.777 737.201 434.488 736.663C426.827 738.315 418.33 740.254 409.737 741.839C407.251 742.298 404.752 742.727 402.265 743.113C404.601 742.739 407.066 742.403 409.632 742.104C420.867 740.775 433.875 740.187 445.639 740.586ZM329.635 751.688C329.631 751.726 329.61 751.772 329.61 751.814C332.482 751.671 341.357 753.025 342.966 753.252C346.548 753.879 350.954 754.778 354.448 755.821C353.676 755.039 352.886 754.274 352.138 753.5C348.195 749.951 342.415 746.541 337.031 743.164C336.157 742.672 335.347 742.214 334.553 741.768C334.553 741.768 334.54 741.759 334.532 741.755C331.222 740.275 328.064 738.774 325.019 737.26C325.716 738.038 326.325 738.812 326.854 739.585C327.056 739.88 327.245 740.183 327.417 740.473C329.694 744.182 330.21 747.869 329.635 751.688Z" fill="#894529"/>
</g>
<path d="M504.153 236.882L504.657 128.559L391.299 141.805L329.387 149.038L329.307 247.017L320.819 247.521H318.135L318.887 138.609L521.121 112.159L519.647 256.268L508.185 256.142L504.065 256.31L504.111 247.605L504.153 236.882Z" fill="#FDE9B8"/>
<path d="M329.307 257.74V258.791L329.223 367.283V378.006L329.139 507.733L502.809 525.02L502.851 513.961L504.661 514.083L517.051 514.209L515.565 719.443L314.985 678.839L318.135 247.526H320.823L329.307 247.021V257.74ZM498.5 699.641L501.549 542.682L328.761 525.02L327.207 666.77L498.5 699.641Z" fill="#FDE9B8"/>
<path d="M504.657 128.559L504.153 236.882L391.299 243.442V141.805L504.657 128.559Z" fill="#925733"/>
<path d="M504.153 236.882L504.111 247.605L391.299 254.165V243.442L504.153 236.882Z" fill="#FDE9B8"/>
<path d="M504.111 247.605L504.065 256.31L391.299 261.314V254.165L504.111 247.605Z" fill="#926435"/>
<path d="M504.065 256.31L503.519 369.007L391.299 367.913V261.314L504.065 256.31Z" fill="#925733"/>
<path d="M503.519 369.007L503.481 379.73L391.299 378.641V367.913L503.519 369.007Z" fill="#FDE9B8"/>
<path d="M503.481 379.73L502.847 513.961L391.299 505.757V378.641L503.481 379.73Z" fill="#925733"/>
<path d="M502.847 513.961L502.805 525.02L329.139 507.733L391.299 505.757L502.847 513.961Z" fill="#926435"/>
<path d="M501.549 542.682L498.151 699.641L327.207 666.77L328.761 525.02L501.549 542.682Z" fill="#EED09E"/>
<path d="M391.299 378.641V505.757L329.139 507.733L329.219 378.006L391.299 378.641Z" fill="#A8733F"/>
<path d="M391.299 367.913V378.641L329.219 378.006V367.283L391.299 367.913Z" fill="#FDE9B8"/>
<path d="M391.299 261.314V367.913L329.219 367.283L329.307 258.791L391.299 261.314Z" fill="#A8733F"/>
<path d="M391.299 254.165V261.314L329.307 258.791V257.74L391.299 254.165Z" fill="#926435"/>
<path d="M391.299 243.442V254.165L329.307 257.74V247.017L391.299 243.442Z" fill="#FDE9B8"/>
<path d="M391.299 141.805V243.442L329.307 247.017L329.387 149.038L391.299 141.805Z" fill="#A8733F"/>
<path d="M343.449 684.225L343.1 697.017L314.401 692.286L314.985 678.839L343.449 684.225Z" fill="#FDE9B8"/>
<path d="M312.381 505.113L309.559 505.323L63.5102 523.124L48.9782 524.192L-264.72 546.883L-267.693 547.097L-356.666 532.173L239.793 495.16L312.381 505.113Z" fill="#E2C28B"/>
<path d="M309.559 602.949V687.669L292.104 690.684L292.007 690.104V673.7L257.197 679.524L63.6698 711.802V698.439L292.011 661.4V602.554C297.895 602.621 303.763 602.739 309.559 602.949Z" fill="#FDE9B8"/>
<path d="M309.559 505.323V602.949C303.763 602.739 297.895 602.621 292.011 602.554V561.832V552.156V524.196L63.6698 542.362V525.302L63.5102 523.124L309.559 505.323Z" fill="#FDE9B8"/>
<path d="M292.011 673.7V690.104L257.197 679.524L292.011 673.7Z" fill="#9F6936"/>
<path d="M292.011 602.554V661.4L63.6698 698.439V621.838C67.1684 621.3 70.667 620.77 74.216 620.257V685.811L281.465 653.208V602.503C284.989 602.503 288.513 602.503 292.011 602.554Z" fill="#C69158"/>
<path d="M292.011 561.832V602.554C288.517 602.503 284.989 602.503 281.465 602.503V574.657L74.216 597.701V620.253C70.667 620.766 67.1684 621.296 63.6698 621.834V587.949L292.011 561.832Z" fill="#BF8544"/>
<path d="M292.011 552.156V561.832L63.6698 587.954V577.079L292.011 552.156Z" fill="#FDE9B8"/>
<path d="M292.011 524.192V552.151L63.6698 577.075V542.358L292.011 524.192ZM283.804 547.097V532.173L74.216 549.418V566.634L283.804 547.097Z" fill="#BF8544"/>
<path d="M283.804 532.173V547.097L74.216 566.63V549.414L283.804 532.173Z" fill="#EED09E"/>
<path d="M281.465 602.503V653.208L74.216 685.811V620.257C141.45 610.375 213.328 602.604 281.465 602.503Z" fill="#FDE9B8"/>
<path d="M281.465 574.657V602.503C213.328 602.6 141.454 610.371 74.216 620.257V597.705L281.465 574.657Z" fill="#EED09E"/>
<path d="M63.6698 698.439V711.802L49.0454 714.267V700.802L63.6698 698.439Z" fill="#F15A29"/>
<path d="M63.6698 621.838V698.439L49.0454 700.806V624.088C53.8922 623.327 58.76 622.557 63.6698 621.838Z" fill="#FDE9B8"/>
<path d="M63.6698 587.954V621.838C58.76 622.557 53.888 623.327 49.0454 624.084V589.653L63.6698 587.954Z" fill="#FDE9B8"/>
<path d="M63.6698 577.079V587.954L49.0454 589.657V578.698L63.6698 577.079Z" fill="#FDE9B8"/>
<path d="M63.6698 542.362V577.079L49.0454 578.698V543.493L63.6698 542.362Z" fill="#FDE9B8"/>
<path d="M63.6698 525.302V542.362L49.0454 543.493V525.302L48.9781 524.192L63.5102 523.124L63.6698 525.302Z" fill="#FDE9B8"/>
<path d="M49.0454 700.802V714.262L-239.117 762.343V782.183L-261.477 786.035L-264.72 784.618V711.802C-257.605 707.858 -248.94 703.846 -239.112 699.805V747.558L49.0454 700.802Z" fill="#F15A29"/>
<path d="M49.0454 624.084V700.802L-239.117 747.558V699.805C-235.521 698.338 -231.767 696.857 -227.873 695.394V732.407L38.9864 691.87L39.6374 625.568C39.7298 625.547 39.797 625.547 39.8684 625.522C42.905 625.043 45.9626 624.555 49.0454 624.084Z" fill="#F5875B"/>
<path d="M49.0454 589.657V624.088C45.9626 624.555 42.905 625.047 39.8684 625.531C39.797 625.556 39.7298 625.556 39.6374 625.577L39.8684 601.423L-227.873 632.683V695.402C-231.767 696.866 -235.521 698.346 -239.117 699.814V622.612L49.0454 589.657Z" fill="#BF8544"/>
<path d="M49.0454 578.698V589.657L-239.117 622.604V610.165L49.0454 578.698Z" fill="#FDE9B8"/>
<path d="M49.0454 543.493V578.698L-239.117 610.161V566.445L49.0454 543.493ZM39.8684 571.318V551.613L-227.873 574.636V597.701L39.8684 571.318Z" fill="#BF8544"/>
<path d="M49.0454 525.302V543.493L-239.117 566.445V610.161V622.6V699.801C-248.945 703.842 -257.609 707.854 -264.724 711.798V546.878L48.974 524.192L49.0454 525.302Z" fill="#FDE9B8"/>
<path d="M39.8684 551.617V571.318L-227.873 597.705V574.636L39.8684 551.617Z" fill="#EED09E"/>
<path d="M39.8684 601.418L39.6374 625.573C-3.91241 633.512 -146.452 664.47 -227.873 695.394V632.675L39.8684 601.418Z" fill="#EED09E"/>
<path d="M39.6374 625.573L38.9864 691.874L-227.873 732.412V695.398C-146.452 664.47 -3.91244 633.508 39.6374 625.573Z" fill="#FDE9B8"/>
<path d="M-17.2768 528.733L-46.114 524.717L-62.0866 521.315C-62.6368 521.227 -50.335 519.284 -42.4978 518.431C-34.6438 517.581 -27.9574 517.834 -27.4072 517.93L-20.137 518.305L21.1616 525.945C21.6278 526.034 -16.798 528.817 -17.2768 528.733Z" fill="#C49A6C"/>
<path d="M193.345 500.71L225.676 511.467L286.749 507.262L250.284 500.471L193.345 500.71Z" fill="#C49A6C"/>
<path opacity="0.6" d="M339.807 903.685C338.665 902.659 335.863 901.272 331.768 899.602C322.927 896.057 219.855 853.27 200.3 847.699C176.629 846.601 149.106 829.419 134.15 831.404C133.764 831.286 85.3586 869.435 56.8112 871.024C-0.124018 874.191 -85.3966 879.052 -176.91 884.321C-177.616 884.123 -178.33 883.921 -178.956 883.749C-182.32 882.773 -185.176 881.945 -187.314 881.306C-219.179 879.594 -293.511 869.691 -314.196 872.404C-309.996 871.352 -203.946 980.685 -203.946 980.685L-159.846 981.736C-154.697 984.524 -146.523 979.306 -142.945 981.286C-138.632 983.856 -135.419 986.48 -131.798 989.011C-122.73 991.114 -109.097 992.228 -96.115 992.859C-85.1362 993.283 -61.9606 994.2 -52.1074 993.473C-38.2726 992.922 -24.3832 991.193 -16.4494 990.453C48.8564 984.427 135.2 977.775 193.483 968.234C212.421 965.437 208.444 963.633 203.068 958.246L202.816 957.948C198.439 954.146 189.556 949.525 184.012 945.921C182.639 945.08 181.312 944.239 180.035 943.386C197.919 940.821 283.342 924.959 321.659 913.37C331.827 910.296 338.715 907.52 340.047 905.38C340.395 904.749 340.37 904.181 339.807 903.685Z" fill="#894529"/>
<path d="M8.75478 518.149C8.81358 517.472 8.86819 516.723 9.45199 516.21C10.9808 516.467 12.5558 516.707 14.1602 516.967C37.004 520.5 64.976 524.473 87.614 528.3C87.5888 529.015 87.551 529.927 87.299 530.592C62.9894 526.458 32.4134 522.165 8.69598 518.427L8.75478 518.149Z" fill="#2F8AA1"/>
<path d="M89.5166 521.357C66.6938 517.468 38.3438 513.439 15.3068 509.869C13.8158 509.638 12.3626 509.419 10.9094 509.18L10.6826 509.121C10.7624 508.313 10.9934 507.603 11.321 506.917C35.0174 510.651 65.543 514.941 89.8652 519.062C89.84 519.776 89.7644 520.689 89.5166 521.357Z" fill="#2F8AA1"/>
<path d="M89.672 521.374C89.672 521.374 90.4196 521.219 91.7972 520.979L92.045 521.315C94.544 523.473 93.6326 525.676 90.575 527.497L90.743 527.762C88.8992 528.14 87.824 528.346 87.824 528.346C87.7526 528.317 87.6812 528.317 87.6098 528.304C64.9718 524.478 37.004 520.504 14.156 516.972C17.2472 515.138 17.4866 512.056 15.2144 510.054L15.3026 509.873C38.3396 513.443 66.6938 517.472 89.5124 521.362C89.5586 521.353 89.63 521.374 89.672 521.374Z" fill="#D0DCD7"/>
<path d="M83.7962 513.431C83.792 514.062 83.7206 514.894 83.5148 515.508C64.6022 512.27 41.4644 508.944 21.7412 505.925C18.7676 505.496 15.8948 505.046 13.1396 504.617C13.3076 504.053 13.6772 503.221 14.1056 502.649C15.1808 502.821 16.2896 502.994 17.3984 503.162C21.422 503.789 25.6304 504.428 29.9564 505.088C47.7476 507.762 67.3616 510.639 83.7962 513.431Z" fill="#97B52F"/>
<path d="M85.5392 507.153C85.577 507.161 85.619 507.178 85.661 507.178C85.661 507.178 86.3708 507.052 87.5804 506.82L87.7988 507.123C88.4078 507.666 88.8278 508.28 88.9664 508.931C89.2856 510.227 88.8152 511.652 87.698 512.762C85.3754 513.212 83.9978 513.473 83.9978 513.473C83.918 513.448 83.8844 513.456 83.8004 513.431C67.3658 510.639 47.7518 507.762 29.9564 505.088C25.6304 504.424 21.4262 503.784 17.3984 503.162C20.1284 501.509 20.3468 498.742 18.2888 496.922L18.3854 496.766C29.7086 498.515 42.5018 500.412 55.0934 502.329C65.6942 503.919 76.106 505.563 85.5392 507.153Z" fill="#D0DCD7"/>
<path d="M141.508 494.811C134.927 495.925 123.818 497.99 113.289 499.954C110.412 500.496 107.547 501.034 104.859 501.539C94.313 503.532 85.9802 505.126 85.9802 505.126C85.9382 505.126 85.8668 505.101 85.829 505.101C78.6806 503.89 70.9064 502.657 62.9558 501.413C46.4918 498.869 29.2256 496.371 14.7608 494.087C25.0046 493.28 68.3696 488.482 80.9948 486.737C97.4336 488.924 123.784 492.616 141.391 494.689C141.391 494.689 141.429 494.689 141.5 494.714C141.5 494.714 141.534 494.714 141.517 494.739C141.521 494.756 141.525 494.773 141.508 494.811Z" fill="#A9CF29"/>
<path d="M85.829 505.096C85.7744 505.723 85.7114 506.568 85.5392 507.148C76.106 505.559 65.6942 503.915 55.0892 502.325C42.4934 500.403 29.7044 498.511 18.3812 496.762C17.033 496.543 15.6974 496.35 14.3996 496.14L14.2148 496.097C14.282 495.349 14.4836 494.71 14.7608 494.083C29.2256 496.367 46.4918 498.864 62.9558 501.408C70.9064 502.653 78.6806 503.885 85.829 505.096Z" fill="#8CA82D"/>
<path d="M87.6098 528.3C87.6812 528.313 87.7526 528.313 87.824 528.342C87.824 528.342 88.895 528.136 90.743 527.758C100.575 525.916 132.957 519.764 148.018 517.157C148.094 517.157 148.174 517.182 148.249 517.178C148.283 517.157 148.333 517.119 148.363 517.081C148.611 516.904 148.858 516.732 149.077 516.538C149.144 516.677 149.173 516.808 149.203 516.955C149.228 517.047 149.257 517.173 149.245 517.291C149.266 517.939 148.942 518.616 148.354 519.221V519.242C148.115 519.305 147.867 519.377 147.64 519.44C129.774 522.531 87.4544 530.617 87.4544 530.617C87.4208 530.617 87.3494 530.592 87.299 530.592C87.5468 529.927 87.5846 529.015 87.6098 528.3Z" fill="#266F82"/>
<path d="M88.9622 508.931C88.8236 508.28 88.4036 507.666 87.7946 507.123L87.5762 506.82C91.4822 506.055 100.844 504.281 111.037 502.388C113.78 501.858 116.586 501.341 119.37 500.816C127.476 499.306 135.339 497.868 140.605 496.943H140.647C142.676 498.751 141.29 501.518 138.757 503.297C138.669 503.313 138.581 503.313 138.505 503.351C136.065 503.763 133.083 504.306 129.824 504.895C120.588 506.547 108.984 508.734 99.731 510.462C94.7834 511.425 90.5246 512.224 87.698 512.762C88.811 511.652 89.2814 510.227 88.9622 508.931Z" fill="#ABB5B1"/>
<path d="M91.7972 520.979C90.4196 521.219 89.672 521.374 89.672 521.374C89.63 521.374 89.5586 521.353 89.5166 521.358C89.7644 520.693 89.84 519.776 89.861 519.062C89.9324 519.083 89.9702 519.087 90.0458 519.104C90.0458 519.104 104.565 516.345 120.185 513.397H120.219C131.819 511.236 144.108 508.957 151.416 507.716C151.614 508.477 151.278 509.285 150.61 510.008L150.643 510.05C150.547 510.067 150.513 510.084 150.433 510.084C144.625 511.11 135.939 512.691 126.918 514.343C112.495 517.026 97.2614 519.94 91.7972 520.979Z" fill="#266F82"/>
<path d="M92.045 521.315L91.7972 520.979C97.2614 519.94 112.495 517.03 126.922 514.339C135.943 512.687 144.629 511.105 150.438 510.079C152.508 511.917 151.395 514.604 149.077 516.538C148.854 516.732 148.611 516.904 148.363 517.081C148.245 517.098 148.128 517.123 148.023 517.157C132.961 519.76 100.579 525.916 90.7472 527.758L90.5792 527.493C93.6326 525.676 94.5398 523.468 92.045 521.315Z" fill="#ABB5B1"/>
<path d="M105.279 511.253C93.4646 513.557 83.666 515.533 83.666 515.533C83.624 515.525 83.5526 515.508 83.5106 515.508C83.7206 514.894 83.7878 514.062 83.792 513.431C83.876 513.456 83.9096 513.448 83.9894 513.473C83.9894 513.473 85.367 513.208 87.6896 512.762C90.5162 512.22 94.7792 511.425 99.7226 510.462C108.975 508.734 120.58 506.547 129.816 504.895C133.075 504.306 136.061 503.763 138.497 503.351C138.531 503.351 138.61 503.376 138.652 503.376C138.942 504.053 139.308 504.352 138.955 504.92C137.854 505.126 136.565 505.353 135.183 505.588C135.183 505.588 135.183 505.588 135.145 505.588C127.128 507.039 115.481 509.276 105.279 511.253Z" fill="#57691C"/>
<path d="M120.219 513.393H120.185C104.565 516.341 90.0458 519.099 90.0458 519.099C89.9702 519.083 89.9324 519.078 89.861 519.057C65.543 514.936 35.0132 510.647 11.3168 506.913C13.5344 506.736 17.2136 506.383 21.737 505.921C41.4602 508.94 64.6022 512.27 83.5106 515.504C83.5526 515.504 83.624 515.521 83.666 515.529C83.666 515.529 93.4646 513.553 105.279 511.248C115.477 509.272 127.128 507.035 135.15 505.58C135.187 505.58 135.187 505.58 135.187 505.58C141.017 506.345 146.494 507.039 151.374 507.607C151.412 507.645 151.441 507.67 151.416 507.704C144.108 508.952 131.819 511.232 120.219 513.393Z" fill="#4EB2CF"/>
<path d="M119.37 500.816C116.586 501.337 113.78 501.858 111.037 502.388C100.844 504.281 91.4822 506.059 87.5762 506.82C86.3666 507.052 85.6568 507.178 85.6568 507.178C85.6148 507.178 85.5728 507.161 85.535 507.153C85.703 506.568 85.7702 505.727 85.8248 505.101C85.8626 505.101 85.934 505.126 85.976 505.126C85.976 505.126 94.3088 503.536 104.855 501.539C107.547 501.034 110.407 500.496 113.284 499.954C123.814 497.99 134.919 495.925 141.504 494.811C141.689 495.509 141.357 496.236 140.765 496.884L140.807 496.926C140.752 496.943 140.681 496.943 140.643 496.943H140.601C135.339 497.868 127.476 499.302 119.37 500.816Z" fill="#60731F"/>
<path d="M138.661 503.376C138.665 503.351 138.703 503.318 138.757 503.297C141.29 501.518 142.676 498.747 140.647 496.943C140.685 496.943 140.757 496.943 140.811 496.926L140.769 496.884C141.366 496.24 141.697 495.509 141.508 494.811C141.525 494.773 141.521 494.756 141.513 494.739C141.529 494.714 141.496 494.714 141.496 494.714C141.613 494.714 141.748 494.739 141.87 494.756C141.79 494.76 141.718 494.773 141.634 494.798C146.532 496.636 145.578 501.152 141.718 503.726C141.16 504.159 140.425 504.52 139.673 504.81C139.392 504.932 139.106 505.016 138.825 505.117C138.921 505.042 138.963 504.979 138.963 504.92C139.316 504.352 138.951 504.049 138.661 503.376Z" fill="#424F15"/>
<path d="M149.203 516.955C149.173 516.812 149.144 516.681 149.077 516.538C151.395 514.604 152.508 511.913 150.438 510.079C150.517 510.079 150.551 510.063 150.648 510.046L150.614 510.004C151.282 509.28 151.618 508.473 151.42 507.712C151.446 507.678 151.416 507.653 151.378 507.615C151.5 507.615 151.622 507.64 151.727 507.657C151.849 507.64 151.924 507.628 152.004 507.603C152.113 507.624 152.235 507.662 152.311 507.72C157.183 509.819 155.814 514.73 151.702 517.594C150.715 518.271 149.589 518.834 148.354 519.217C148.947 518.616 149.27 517.935 149.245 517.287C149.257 517.169 149.228 517.047 149.203 516.955Z" fill="#194854"/>
<path d="M10.1618 490.786C10.2206 490.143 10.271 489.432 10.8254 488.945C12.2828 489.193 13.7822 489.416 15.3068 489.664C37.0586 493.024 63.6866 496.808 85.2368 500.454C85.2158 501.131 85.178 501.997 84.9386 502.632C61.7966 498.696 32.6864 494.609 10.103 491.047L10.1618 490.786Z" fill="#2FA139"/>
<path d="M87.0554 493.848C65.3288 490.143 38.3354 486.308 16.403 482.91C14.9834 482.692 13.6016 482.481 12.2156 482.254L11.9972 482.2C12.0728 481.43 12.2954 480.753 12.602 480.101C35.1602 483.659 64.2242 487.742 87.3788 491.665C87.362 492.338 87.2906 493.209 87.0554 493.848Z" fill="#2FA139"/>
<path d="M87.2024 493.86C87.2024 493.86 87.9122 493.709 89.2226 493.482L89.4578 493.801C91.835 495.854 90.9698 497.952 88.0592 499.684L88.2188 499.937C86.4632 500.294 85.4384 500.488 85.4384 500.488C85.3712 500.462 85.304 500.462 85.2326 500.454C63.6824 496.804 37.0544 493.019 15.3026 489.664C18.2468 487.919 18.4736 484.983 16.3106 483.078L16.3988 482.906C38.3312 486.304 65.3246 490.139 87.0512 493.844C87.0932 493.839 87.1646 493.86 87.2024 493.86Z" fill="#D5DCD0"/>
<path d="M81.608 486.3C81.6038 486.901 81.5366 487.696 81.3392 488.28C63.3338 485.198 41.3048 482.027 22.5266 479.155C19.7 478.747 16.9616 478.318 14.3366 477.91C14.4962 477.372 14.8448 476.582 15.2564 476.035C16.2812 476.203 17.3354 476.363 18.3896 476.523C22.2242 477.12 26.2268 477.725 30.3428 478.356C47.2898 480.9 65.963 483.642 81.608 486.3Z" fill="#B5942F"/>
<path d="M83.267 480.32C83.3006 480.324 83.3426 480.341 83.3804 480.341C83.3804 480.341 84.0566 480.223 85.2074 480.005L85.4132 480.291C85.9928 480.808 86.3918 481.392 86.5262 482.01C86.8286 483.247 86.3792 484.605 85.3166 485.66C83.1074 486.085 81.7928 486.337 81.7928 486.337C81.7172 486.316 81.6878 486.321 81.608 486.3C65.963 483.642 47.2898 480.9 30.3428 478.356C26.2268 477.725 22.22 477.116 18.3896 476.523C20.9894 474.95 21.1952 472.313 19.238 470.581L19.3304 470.43C30.1118 472.095 42.2876 473.899 54.2786 475.728C64.3754 477.242 74.2874 478.806 83.267 480.32Z" fill="#D5DCD0"/>
<path d="M136.552 468.571C130.286 469.635 119.71 471.599 109.689 473.47C106.951 473.987 104.225 474.5 101.663 474.979C91.6208 476.876 83.687 478.39 83.687 478.39C83.645 478.39 83.5778 478.369 83.5442 478.369C76.7402 477.217 69.3398 476.039 61.7672 474.857C46.0928 472.435 29.654 470.055 15.8822 467.885C25.6346 467.116 66.9206 462.553 78.9368 460.888C94.5902 462.97 119.677 466.485 136.439 468.457C136.439 468.457 136.473 468.457 136.544 468.478C136.544 468.478 136.578 468.478 136.561 468.504C136.565 468.52 136.569 468.537 136.552 468.571Z" fill="#CFA729"/>
<path d="M83.5442 478.365C83.4938 478.962 83.4308 479.765 83.2712 480.32C74.2874 478.806 64.3796 477.242 54.2828 475.724C42.2918 473.895 30.116 472.095 19.3346 470.425C18.0494 470.219 16.781 470.034 15.542 469.832L15.3614 469.795C15.4244 469.084 15.6218 468.474 15.8864 467.877C29.6582 470.051 46.097 472.431 61.7714 474.849C69.3356 476.039 76.7402 477.212 83.5442 478.365Z" fill="#A88A2D"/>
<path d="M85.2368 500.458C85.3082 500.471 85.3754 500.471 85.4426 500.492C85.4426 500.492 86.4632 500.298 88.223 499.941C97.5848 498.187 128.413 492.326 142.752 489.849C142.827 489.849 142.899 489.87 142.97 489.866C143.004 489.849 143.05 489.811 143.075 489.773C143.31 489.605 143.545 489.437 143.755 489.256C143.823 489.386 143.848 489.512 143.877 489.651C143.902 489.744 143.928 489.857 143.919 489.971C143.94 490.589 143.634 491.232 143.071 491.808V491.829C142.844 491.888 142.609 491.955 142.39 492.014C125.38 494.962 85.0898 502.657 85.0898 502.657C85.0562 502.657 84.989 502.632 84.9428 502.632C85.1822 502.001 85.2158 501.135 85.2368 500.458Z" fill="#26822E"/>
<path d="M86.5304 482.015C86.396 481.396 85.997 480.812 85.4174 480.295L85.2116 480.009C88.9286 479.281 97.841 477.591 107.547 475.787C110.16 475.282 112.827 474.786 115.481 474.29C123.196 472.852 130.681 471.485 135.696 470.602H135.733C137.665 472.322 136.347 474.958 133.936 476.653C133.852 476.67 133.772 476.67 133.696 476.704C131.374 477.095 128.535 477.612 125.431 478.171C116.636 479.744 105.59 481.825 96.7784 483.47C92.0702 484.39 88.0129 485.143 85.3207 485.66C86.3833 484.605 86.8286 483.247 86.5304 482.015Z" fill="#AFB5AB"/>
<path d="M89.2268 493.486C87.9164 493.713 87.2066 493.865 87.2066 493.865C87.1688 493.865 87.0974 493.844 87.0596 493.848C87.2948 493.213 87.3662 492.338 87.3872 491.661C87.4544 491.678 87.488 491.682 87.5636 491.699C87.5636 491.699 101.386 489.067 116.258 486.262H116.292C127.338 484.201 139.035 482.036 145.994 480.854C146.183 481.577 145.86 482.343 145.225 483.032L145.259 483.074C145.167 483.091 145.133 483.108 145.057 483.108C139.53 484.084 131.256 485.593 122.671 487.166C108.933 489.723 94.4264 492.498 89.2268 493.486Z" fill="#26822E"/>
<path d="M89.462 493.806L89.2268 493.486C94.4306 492.498 108.933 489.723 122.667 487.166C131.252 485.593 139.526 484.084 145.053 483.108C147.023 484.857 145.965 487.418 143.755 489.256C143.545 489.437 143.31 489.605 143.075 489.773C142.962 489.786 142.852 489.811 142.747 489.849C128.409 492.325 97.5806 498.187 88.2188 499.941L88.0592 499.689C90.974 497.956 91.8392 495.858 89.462 493.806Z" fill="#AFB5AB"/>
<path d="M102.062 484.226C90.8144 486.417 81.4862 488.301 81.4862 488.301C81.4442 488.297 81.377 488.28 81.335 488.28C81.5324 487.696 81.5996 486.901 81.6038 486.3C81.6836 486.321 81.7172 486.316 81.7886 486.337C81.7886 486.337 83.1032 486.085 85.3124 485.66C88.0046 485.143 92.0618 484.386 96.77 483.47C105.582 481.825 116.628 479.744 125.422 478.171C128.526 477.612 131.37 477.095 133.688 476.704C133.722 476.704 133.797 476.729 133.839 476.729C134.112 477.372 134.461 477.658 134.125 478.196C133.075 478.39 131.853 478.608 130.534 478.831C130.534 478.831 130.534 478.831 130.5 478.831C122.865 480.211 111.772 482.347 102.062 484.226Z" fill="#695A29"/>
<path d="M116.287 486.262H116.254C101.382 489.067 87.5594 491.699 87.5594 491.699C87.4838 491.682 87.4502 491.678 87.383 491.661C64.2284 487.738 35.1644 483.655 12.6062 480.097C14.7188 479.929 18.2216 479.592 22.5266 479.151C41.3048 482.027 63.3338 485.198 81.3392 488.276C81.377 488.276 81.4484 488.293 81.4904 488.297C81.4904 488.297 90.8186 486.413 102.066 484.222C111.777 482.343 122.865 480.206 130.504 478.827C130.538 478.827 130.538 478.827 130.538 478.827C136.09 479.555 141.303 480.215 145.948 480.757C145.981 480.791 146.011 480.816 145.99 480.85C139.026 482.04 127.329 484.205 116.287 486.262Z" fill="#4ECF5C"/>
<path d="M115.481 474.29C112.827 474.786 110.155 475.282 107.547 475.787C97.841 477.587 88.9286 479.281 85.2116 480.009C84.0566 480.227 83.3846 480.345 83.3846 480.345C83.3468 480.345 83.3048 480.328 83.2712 480.324C83.4308 479.769 83.4938 478.966 83.5442 478.369C83.5778 478.369 83.645 478.39 83.687 478.39C83.687 478.39 91.6208 476.876 101.663 474.979C104.225 474.5 106.951 473.987 109.689 473.47C119.715 471.603 130.286 469.635 136.552 468.571C136.729 469.235 136.414 469.929 135.851 470.543L135.889 470.585C135.838 470.602 135.767 470.602 135.733 470.602H135.696C130.681 471.481 123.196 472.847 115.481 474.29Z" fill="#735F1F"/>
<path d="M133.843 476.725C133.848 476.699 133.881 476.666 133.932 476.649C136.342 474.954 137.661 472.318 135.729 470.598C135.763 470.598 135.834 470.598 135.885 470.581L135.847 470.539C136.414 469.925 136.729 469.231 136.548 468.567C136.565 468.533 136.561 468.516 136.552 468.499C136.569 468.474 136.536 468.474 136.536 468.474C136.649 468.474 136.775 468.499 136.893 468.516C136.817 468.52 136.746 468.533 136.666 468.554C141.328 470.303 140.416 474.605 136.746 477.053C136.212 477.465 135.519 477.809 134.801 478.083C134.532 478.201 134.263 478.28 133.995 478.377C134.087 478.302 134.129 478.247 134.129 478.188C134.469 477.654 134.121 477.368 133.843 476.725Z" fill="#4F4115"/>
<path d="M143.877 489.655C143.848 489.516 143.823 489.39 143.755 489.26C145.96 487.418 147.023 484.861 145.053 483.112C145.129 483.112 145.162 483.1 145.255 483.078L145.221 483.036C145.855 482.347 146.179 481.581 145.99 480.858C146.011 480.825 145.986 480.799 145.948 480.766C146.061 480.766 146.179 480.787 146.28 480.808C146.397 480.791 146.469 480.778 146.544 480.757C146.645 480.778 146.763 480.816 146.838 480.871C151.479 482.868 150.173 487.549 146.259 490.273C145.318 490.921 144.247 491.455 143.071 491.817C143.634 491.245 143.944 490.601 143.919 489.979C143.932 489.861 143.902 489.744 143.877 489.655Z" fill="#19541E"/>
<path d="M453.913 511.551C453.883 510.841 453.862 510.054 453.455 509.508C452.317 509.756 451.145 509.983 449.956 510.227C432.959 513.578 412.152 517.325 395.293 521.004C395.289 521.753 395.289 522.707 395.449 523.418C413.555 519.444 436.294 515.403 453.938 511.837L453.913 511.551Z" fill="#2FA139"/>
<path d="M394.113 513.671C411.111 509.928 432.19 506.135 449.335 502.742C450.444 502.523 451.523 502.313 452.615 502.086L452.787 502.027C452.754 501.173 452.602 500.425 452.38 499.697C434.748 503.255 412.043 507.296 393.933 511.253C393.928 512.001 393.954 512.964 394.113 513.671Z" fill="#2FA139"/>
<path d="M393.996 513.687C393.996 513.687 393.45 513.507 392.446 513.242L392.248 513.587C390.333 515.815 390.925 518.149 393.126 520.113L392.996 520.39C394.344 520.811 395.13 521.042 395.13 521.042C395.184 521.013 395.235 521.013 395.293 521.004C412.152 517.325 432.959 513.574 449.956 510.227C447.735 508.25 447.659 505.004 449.406 502.935L449.339 502.746C432.195 506.139 411.115 509.936 394.117 513.675C394.084 513.662 394.025 513.683 393.996 513.687Z" fill="#D5DCD0"/>
<path d="M398.611 505.424C398.595 506.089 398.616 506.968 398.75 507.611C412.833 504.503 430.04 501.358 444.719 498.49C446.928 498.086 449.066 497.658 451.12 497.25C451.015 496.653 450.771 495.769 450.473 495.16C449.675 495.328 448.843 495.488 448.029 495.648C445.026 496.245 441.897 496.85 438.675 497.481C425.441 500.021 410.842 502.746 398.611 505.424Z" fill="#B5942F"/>
<path d="M397.528 498.793C397.503 498.797 397.469 498.814 397.444 498.818C397.444 498.818 396.923 498.675 396.037 498.41L395.865 498.726C395.394 499.289 395.067 499.924 394.936 500.605C394.663 501.968 394.962 503.473 395.751 504.655C397.448 505.164 398.46 505.458 398.46 505.458C398.519 505.437 398.548 505.445 398.611 505.42C410.846 502.742 425.445 500.017 438.679 497.481C441.901 496.85 445.03 496.245 448.033 495.648C446.063 493.873 445.992 490.95 447.579 489.071L447.508 488.903C439.083 490.568 429.57 492.363 420.199 494.184C412.303 495.698 404.554 497.266 397.528 498.793Z" fill="#D5DCD0"/>
<path d="M356.582 484.941C361.412 486.22 369.547 488.562 377.263 490.791C379.367 491.405 381.467 492.014 383.441 492.586C391.169 494.849 397.272 496.653 397.272 496.653C397.301 496.657 397.351 496.627 397.377 496.627C402.706 495.463 408.486 494.285 414.408 493.103C426.663 490.686 439.507 488.326 450.276 486.152C442.72 485.143 410.838 479.424 401.568 477.389C389.346 479.433 369.749 482.91 356.67 484.811C356.67 484.811 356.645 484.815 356.586 484.836C356.586 484.836 356.561 484.832 356.574 484.861C356.574 484.887 356.574 484.903 356.582 484.941Z" fill="#CFA729"/>
<path d="M397.381 496.627C397.406 497.283 397.423 498.175 397.528 498.793C404.554 497.271 412.303 495.698 420.195 494.188C429.561 492.368 439.078 490.572 447.504 488.907C448.516 488.701 449.503 488.516 450.469 488.314L450.612 488.272C450.586 487.481 450.46 486.813 450.28 486.152C439.511 488.326 426.667 490.686 414.412 493.103C408.494 494.285 402.711 495.463 397.381 496.627Z" fill="#A88A2D"/>
<path d="M395.293 521.009C395.239 521.017 395.188 521.017 395.13 521.046C395.13 521.046 394.344 520.811 392.996 520.395C385.793 518.296 362.063 511.32 351.025 508.351C350.971 508.347 350.912 508.372 350.862 508.368C350.836 508.347 350.799 508.305 350.782 508.263C350.601 508.074 350.429 507.889 350.269 507.683C350.219 507.83 350.19 507.968 350.164 508.12C350.139 508.221 350.122 508.351 350.118 508.477C350.08 509.163 350.299 509.878 350.719 510.517L350.715 510.542C350.891 510.609 351.072 510.685 351.24 510.756C364.335 514.289 395.344 523.452 395.344 523.452C395.369 523.452 395.424 523.431 395.457 523.431C395.285 522.712 395.285 521.753 395.293 521.009Z" fill="#26822E"/>
<path d="M394.936 500.61C395.062 499.924 395.394 499.289 395.865 498.73L396.037 498.414C393.172 497.552 386.318 495.538 378.846 493.389C376.834 492.788 374.785 492.199 372.739 491.606C366.805 489.891 361.038 488.263 357.183 487.204H357.149C355.587 489.075 356.515 492.006 358.325 493.919C358.396 493.936 358.455 493.936 358.514 493.974C360.303 494.445 362.487 495.063 364.877 495.732C371.647 497.616 380.152 500.096 386.94 502.052C390.556 503.149 393.681 504.049 395.751 504.663C394.966 503.477 394.663 501.968 394.936 500.61Z" fill="#AFB5AB"/>
<path d="M392.446 513.242C393.45 513.507 393.996 513.687 393.996 513.687C394.025 513.683 394.084 513.662 394.113 513.671C393.954 512.96 393.928 511.997 393.937 511.253C393.882 511.265 393.857 511.274 393.798 511.29C393.798 511.29 383.164 508.158 371.715 504.815H371.689C363.189 502.359 354.18 499.777 348.829 498.356C348.661 499.15 348.879 500.008 349.35 500.774L349.32 500.824C349.392 500.841 349.417 500.862 349.48 500.862C353.739 502.031 360.097 503.831 366.708 505.71C377.284 508.759 388.439 512.06 392.446 513.242Z" fill="#26822E"/>
<path d="M392.248 513.587L392.446 513.242C388.439 512.06 377.28 508.759 366.708 505.71C360.097 503.831 353.734 502.031 349.48 500.862C347.884 502.763 348.615 505.609 350.265 507.678C350.425 507.884 350.597 508.069 350.778 508.259C350.862 508.28 350.95 508.305 351.025 508.347C362.063 511.316 385.793 518.292 392.996 520.39L393.126 520.113C390.925 518.149 390.333 515.815 392.248 513.587Z" fill="#AFB5AB"/>
<path d="M382.807 502.8C391.459 505.403 398.637 507.636 398.637 507.636C398.666 507.628 398.721 507.615 398.754 507.611C398.62 506.968 398.599 506.089 398.616 505.424C398.553 505.45 398.523 505.441 398.464 505.462C398.464 505.462 397.456 505.168 395.755 504.659C393.685 504.045 390.56 503.145 386.944 502.048C380.161 500.092 371.656 497.611 364.881 495.727C362.496 495.059 360.307 494.441 358.518 493.97C358.489 493.97 358.43 493.995 358.401 493.995C358.165 494.697 357.884 495.008 358.123 495.61C358.934 495.841 359.875 496.102 360.891 496.375C360.891 496.375 360.891 496.375 360.921 496.375C366.805 498.028 375.331 500.567 382.807 502.8Z" fill="#695A29"/>
<path d="M371.694 504.819H371.719C383.168 508.162 393.802 511.295 393.802 511.295C393.861 511.278 393.886 511.269 393.941 511.257C412.051 507.3 434.757 503.263 452.388 499.701C450.754 499.478 448.054 499.054 444.723 498.49C430.044 501.354 412.837 504.503 398.754 507.611C398.721 507.615 398.666 507.628 398.637 507.636C398.637 507.636 391.459 505.403 382.807 502.8C375.335 500.563 366.805 498.028 360.921 496.371C360.891 496.371 360.891 496.371 360.891 496.371C356.561 497.081 352.491 497.725 348.867 498.25C348.837 498.288 348.812 498.314 348.837 498.351C354.188 499.781 363.193 502.363 371.694 504.819Z" fill="#4ECF5C"/>
<path d="M372.739 491.602C374.785 492.199 376.839 492.788 378.846 493.385C386.314 495.534 393.172 497.548 396.037 498.41C396.919 498.675 397.444 498.818 397.444 498.818C397.473 498.814 397.503 498.801 397.528 498.793C397.423 498.179 397.406 497.288 397.381 496.627C397.356 496.627 397.305 496.653 397.276 496.653C397.276 496.653 391.169 494.849 383.445 492.586C381.471 492.014 379.375 491.405 377.267 490.791C369.547 488.562 361.416 486.22 356.586 484.941C356.427 485.673 356.645 486.447 357.069 487.132L357.036 487.178C357.073 487.195 357.132 487.195 357.157 487.199H357.191C361.038 488.259 366.805 489.887 372.739 491.602Z" fill="#735F1F"/>
<path d="M358.401 493.995C358.396 493.965 358.371 493.932 358.329 493.911C356.519 491.998 355.591 489.067 357.153 487.195C357.128 487.191 357.073 487.191 357.031 487.174L357.065 487.128C356.641 486.438 356.422 485.669 356.582 484.937C356.574 484.899 356.574 484.882 356.582 484.861C356.569 484.832 356.595 484.836 356.595 484.836C356.511 484.832 356.41 484.857 356.317 484.874C356.376 484.882 356.431 484.899 356.49 484.92C352.81 486.775 353.365 491.548 356.133 494.31C356.536 494.773 357.057 495.164 357.607 495.479C357.813 495.614 358.018 495.706 358.224 495.816C358.153 495.736 358.123 495.669 358.123 495.606C357.884 495.008 358.161 494.701 358.401 493.995Z" fill="#4F4115"/>
<path d="M350.16 508.111C350.185 507.96 350.215 507.825 350.265 507.674C348.615 505.605 347.884 502.763 349.48 500.858C349.417 500.858 349.396 500.841 349.32 500.82L349.35 500.769C348.879 500.004 348.661 499.146 348.829 498.351C348.808 498.309 348.829 498.288 348.858 498.25C348.77 498.25 348.678 498.271 348.598 498.293C348.505 498.271 348.451 498.259 348.392 498.234C348.316 498.255 348.224 498.293 348.165 498.351C344.494 500.479 345.343 505.672 348.283 508.746C348.993 509.478 349.803 510.084 350.706 510.504C350.286 509.861 350.068 509.146 350.106 508.465C350.114 508.343 350.135 508.212 350.16 508.111Z" fill="#19541E"/>
<path d="M369.442 364.015L411.245 363.746L406.096 366.757L358.073 367.527L369.442 364.015Z" fill="#BEBEBE"/>
<path d="M348.804 288.302L369.442 364.015L358.073 367.526L338.249 294.808L348.804 288.302Z" fill="#7DC143"/>
<path d="M389.434 287.234L411.245 363.746L369.442 364.015L348.804 288.302L389.434 287.234Z" fill="#6CAB3A"/>
<path d="M390.875 364.247L433.572 364.015L428.305 367.051L379.266 367.775L390.875 364.247Z" fill="#BEBEBE"/>
<path d="M370.039 287.76L390.875 364.247L379.266 367.775L359.249 294.32L370.039 287.76Z" fill="#C8554A"/>
<path d="M411.531 286.704L433.572 364.015L390.875 364.247L370.039 287.76L411.531 286.704Z" fill="#AF1C29"/>
<path d="M453.09 361.854L443.858 367.144L402.933 367.96L420.296 362.728L453.09 361.854Z" fill="#BEBEBE"/>
<path d="M401.619 287.958L420.296 362.728L402.929 367.96C402.929 367.96 385.407 296.031 384.903 294.791L401.619 287.958Z" fill="#DBBE79"/>
<path d="M434.74 288.21L453.127 361.854H453.09L420.296 362.728L401.619 287.958L434.74 288.21Z" fill="#D1AD52"/>
<path d="M434.841 287.087L452.199 363.452L434.181 368.368C434.181 368.368 417.931 294.934 417.444 293.664L434.841 287.087Z" fill="#DAC5BF"/>
<path d="M368.8 241.003L411.379 237.538L406.184 240.621L355.952 245.368L368.8 241.003Z" fill="#BEBEBE"/>
<path d="M350.034 164.071L368.8 241.003L355.952 245.368L336.54 170.736L350.034 164.071Z" fill="#D19F71"/>
<path d="M396.28 164.921L411.379 237.538L368.8 241.003L350.034 164.071L396.28 164.921Z" fill="#B8693D"/>
<path d="M391.421 240.011L431.947 236.626L426.945 239.633L379.157 244.258L391.421 240.011Z" fill="#BEBEBE"/>
<path d="M375.117 165.265L391.421 240.011L379.157 244.258L362.235 171.758L375.117 165.265Z" fill="#D19F71"/>
<path d="M418.927 165.98L431.947 236.626L391.421 240.011L375.117 165.265L418.927 165.98Z" fill="#E57C41"/>
<path d="M450.528 233.712L442.157 238.796L404.626 242.58L421.581 236.613L450.528 233.712Z" fill="#BEBEBE"/>
<path d="M410.451 166.884L421.581 236.613L404.626 242.576C404.626 242.576 392.862 174.395 392.425 173.12L410.451 166.884Z" fill="#F8DF46"/>
<path d="M442.266 168.432L450.565 233.708L450.528 233.712L421.581 236.613L410.451 166.884L442.266 168.432Z" fill="#FED74E"/>
<path d="M442.195 168.007L452.355 235.268L434.845 241.243C434.845 241.243 425.676 174.168 425.323 173.036L442.195 168.007Z" fill="#BBBA9D"/>
</g>
</g>
<defs>
<clipPath id="clip0_3_5">
<rect width="428" height="926" fill="white"/>
</clipPath>
<clipPath id="clip1_3_5">
<rect width="1890" height="1338" fill="white" transform="translate(-499 -161)"/>
</clipPath>
</defs>
</svg>
