<svg width="200" height="200" viewBox="0 0 200 200" fill="none" xmlns="http://www.w3.org/2000/svg">

  <ellipse id="mochi-floor-shadow" cx="103" cy="154.5" rx="78" ry="15.5" fill="#D9D9D9"/>
  
  <g id="mochi-body-group">
    <path id="mochi-skin" d="M180.227 100.89C180.594 108.24 184.82 151.755 104.584 157.151C24.347 162.547 19.6176 115.011 19.889 108.354C20.1605 101.697 27.6851 47.993 97.9091 42.8551C168.133 37.7173 179.86 93.5403 180.227 100.89Z" fill="white"/>
    
    <mask id="mochi-body-mask" style="mask-type:alpha" maskUnits="userSpaceOnUse" x="19" y="42" width="162" height="116">
      <path d="M180.227 100.89C180.594 108.24 184.82 151.755 104.584 157.151C24.347 162.547 19.6176 115.011 19.889 108.354C20.1605 101.697 27.6851 47.993 97.9091 42.8551C168.133 37.7173 179.86 93.5403 180.227 100.89Z" fill="white"/>
    </mask>
    <g mask="url(#mochi-body-mask)">
      <path d="M103.742 163.203C63.9708 167.848 32.651 142.088 32.651 142.088C4.97682 125.549 24.5 128.5 24.5 128.5C113.5 180.5 195.713 110.945 182.787 125.725C169.862 140.505 153.456 157.396 103.742 163.203Z" fill="#969696"/>
    </g>
  </g>

  <g id="mochi-face-group">
    <g id="mochi-blush">
      <ellipse cx="63.2202" cy="100" rx="9.5" ry="8" fill="#E7827A"/>
      <ellipse cx="138.72" cy="100" rx="9" ry="8" fill="#E7827A"/>
    </g>

    <path id="mochi-mouth" d="M100.089 95.4798C91.4569 91.6673 90.7929 93.7007 90.7929 94.7173C89.465 99.2923 106.728 103.867 108.72 94.7173C107.392 90.1424 104.736 96.2423 100.089 95.4798Z" fill="black"/>

    <g id="mochi-eyes-idle">
      <ellipse cx="71.7202" cy="84.5" rx="7" ry="7.5" fill="black"/>
      <ellipse cx="128.72" cy="84.5" rx="7" ry="7.5" fill="black"/>
    </g>
  </g>
</svg>
