<svg width="200" height="200" viewBox="0 0 200 200" fill="none" xmlns="http://www.w3.org/2000/svg">
<path d="M180.227 100.89C180.594 108.24 184.82 151.755 104.584 157.151C24.347 162.547 19.6176 115.011 19.889 108.354C20.1605 101.697 27.6851 47.993 97.9091 42.8551C168.133 37.7173 179.86 93.5403 180.227 100.89Z" fill="white"/>
<mask id="mask0_20_2" style="mask-type:alpha" maskUnits="userSpaceOnUse" x="19" y="42" width="162" height="116">
<path d="M180.227 100.89C180.594 108.24 184.82 151.755 104.584 157.151C24.347 162.547 19.6176 115.011 19.889 108.354C20.1605 101.697 27.6851 47.993 97.9091 42.8551C168.133 37.7173 179.86 93.5403 180.227 100.89Z" fill="white"/>
</mask>
<g mask="url(#mask0_20_2)">
<path d="M103.742 169.588C63.9708 174.233 32.651 148.474 32.651 148.474C4.97681 131.934 24.5 134.885 24.5 134.885C113.5 186.885 195.713 117.33 182.787 132.11C169.862 146.89 153.456 163.781 103.742 169.588Z" fill="#969696"/>
<path d="M102 26.5004C62.4315 20.3635 44.4737 58.1149 44.4737 58.1149C16.1974 73.6026 35.8177 71.3873 35.8177 71.3873C129.5 -1.5 199 103.5 196 97.5004C196 97.5004 151.461 34.1716 102 26.5004Z" fill="#D3D3D3"/>
</g>
<path d="M100.807 109.771C93.6139 107.048 93.0606 108.5 93.0606 109.227C91.954 112.494 106.34 115.762 108 109.227C106.893 105.959 104.68 110.316 100.807 109.771Z" fill="black"/>
<ellipse cx="63.2202" cy="113" rx="9.5" ry="8" fill="#E7827A"/>
<ellipse cx="138.72" cy="113" rx="9" ry="8" fill="#E7827A"/>
<path d="M73 95.4317C78.5 93.582 81.1176 93.1332 81.0854 94.1493C82.2679 98.764 64.8685 102.79 63.1672 93.582C64.6392 89.0514 68.3304 96.0467 73 95.4317Z" fill="black"/>
<path d="M129.5 94.4291C138.248 90.8918 138.118 92.1307 138.085 93.1468C139.268 97.7615 121.869 101.788 120.167 92.5795C121.639 88.0488 124.83 95.0442 129.5 94.4291Z" fill="black"/>
<path d="M25 77C61.1612 22.1421 146.657 21.7472 177.5 77L176 78C144.5 26.5 61.5 28 27 78L25 77Z" fill="#A3A3A3"/>
<path d="M14.8299 76.9466C15.6734 75.679 17.1348 75 18.6574 75H25.0432C28.051 75 30.3724 77.6373 30.0461 80.6273C28.3999 95.7131 28.4328 105.947 30.032 120.359C30.3642 123.353 28.0421 126 25.0295 126H18.1301C16.0891 126 14.2391 124.761 13.5478 122.84C6.98224 104.599 7.62576 87.7732 14.8299 76.9466Z" fill="#C2C1C1"/>
<path d="M13.9528 77.2068C14.7613 75.7858 16.3181 75 17.953 75H20.9522C24.3965 75 26.7975 78.3996 25.8431 81.7091C22.0752 94.7735 22.0827 104.756 26.0665 119.449C26.9511 122.711 24.556 126 21.176 126H17.575C15.4536 126 13.5501 124.663 12.9171 122.638C7.28366 104.62 7.81157 88.0013 13.9528 77.2068Z" fill="#D9D9D9"/>
<path d="M186.17 76.9466C185.327 75.679 183.865 75 182.343 75H176.161C173.083 75 170.743 77.7582 171.164 80.8077C173.181 95.4153 173.1 105.614 171.13 120.228C170.72 123.265 173.056 126 176.121 126H182.87C184.911 126 186.761 124.761 187.452 122.84C194.018 104.599 193.374 87.7732 186.17 76.9466Z" fill="#C2C1C1"/>
<path d="M186.726 77.1065C185.903 75.7439 184.382 75 182.79 75H179.599C176.005 75 173.593 78.6814 174.784 82.0721C179.655 95.9338 179.212 105.766 174.622 119.06C173.465 122.413 175.873 126 179.42 126H183.221C185.313 126 187.196 124.7 187.852 122.714C193.827 104.61 193.257 87.9133 186.726 77.1065Z" fill="#D9D9D9"/>
</svg>
