<svg width="200" height="200" viewBox="0 0 200 200" fill="none" xmlns="http://www.w3.org/2000/svg">
<!-- Shadow removed: <ellipse cx="112" cy="154.5" rx="78" ry="15.5" fill="#D9D9D9"/> -->
<path d="M187.67 100.89C187.997 108.24 191.766 151.755 120.213 157.151C48.6601 162.547 44.4425 115.011 44.6846 108.354C44.9267 101.697 51.6369 47.993 114.261 42.8551C176.885 37.7173 187.342 93.5403 187.67 100.89Z" fill="white" stroke="black" stroke-width="0.5"/>
<mask id="mask0_12_987" style="mask-type:alpha" maskUnits="userSpaceOnUse" x="44" y="42" width="145" height="116">
<path d="M187.67 100.89C187.997 108.24 191.766 151.755 120.213 157.151C48.6601 162.547 44.4425 115.011 44.6846 108.354C44.9267 101.697 51.6369 47.993 114.261 42.8551C176.885 37.7173 187.342 93.5403 187.67 100.89Z" fill="white" stroke="black" stroke-width="0.5"/>
</mask>
<g mask="url(#mask0_12_987)">
<path d="M116.953 166.588C81.4865 171.233 53.5563 145.474 53.5563 145.474C28.8772 128.934 46.2874 131.885 46.2874 131.885C125.655 183.885 198.971 114.33 187.444 129.11C175.917 143.89 161.287 160.781 116.953 166.588Z" fill="#969696" stroke="black" stroke-width="0.5"/>
</g>
<path d="M108.368 107.48C99.7367 103.667 99.0728 105.701 99.0728 106.717C97.7448 111.292 115.008 115.867 117 106.717C115.672 102.142 113.016 108.242 108.368 107.48Z" fill="black"/>
<ellipse cx="71.5" cy="112" rx="9.5" ry="8" fill="#E7827A"/>
<ellipse cx="147" cy="112" rx="9" ry="8" fill="#E7827A"/>
<ellipse cx="80" cy="96.5" rx="7" ry="7.5" fill="black"/>
<ellipse cx="137" cy="96.5" rx="7" ry="7.5" fill="black"/>
<path d="M71 85.5C52.7536 90.6113 40.4742 89.6877 14.5 80.5C22.184 107.749 28.543 127.155 39 139.5C63 150.5 73.9352 148.806 93 148.5C81.6589 128.004 76.3683 114.918 71 85.5Z" fill="white" stroke="black" stroke-width="0.5"/>
<path d="M64.6677 83.8422C47.2493 91.3024 34.9549 91.9972 8 86.2955C19.1915 112.302 28.0406 130.705 40.0264 141.573C65.2617 149.33 75.8804 146.217 94.7403 143.413C80.809 124.581 73.8479 112.302 64.6677 83.8422Z" fill="#E8E8E8" stroke="black" stroke-width="0.5"/>
<path d="M62.6677 86.8422C45.2493 94.3024 32.9549 94.9972 6 89.2955C17.1915 115.302 26.0406 133.705 38.0264 144.573C63.2617 152.33 73.8804 149.217 92.7403 146.413C83.5103 133.936 77.3399 124.336 71.5566 111C68.6109 104.208 65.7657 96.4462 62.6677 86.8422Z" fill="white" stroke="black" stroke-width="0.5"/>
</svg>
